<?xml version="1.0" encoding="utf-8"?>
<!-- Generator: Adobe Illustrator 24.3.0, SVG Export Plug-In . SVG Version: 6.00 Build 0)  -->
<svg version="1.1" id="Layer_1" xmlns="http://www.w3.org/2000/svg" xmlns:xlink="http://www.w3.org/1999/xlink" x="0px" y="0px"
	 viewBox="0 0 512 408" style="enable-background:new 0 0 512 408;" xml:space="preserve">
<style type="text/css">
	.st0{fill:#1A1818;}
	.st1{fill:#FFFFFF;}
</style>
<g id="logotipo" transform="translate(-339.153 -245.076)">
	<path id="Caminho_1322" class="st0" d="M835.4,402.7c-0.1-1.2-0.2-2.1-0.2-2.8c-0.7-11.2-12.3-32.7-51.5-42.4
		c-36.6-9-107-16.2-113-16.8c-5.7-2.2-11-5.5-15.5-9.6c-17.7-13.4-44.4-33.5-98.6-33.8c-18.3-0.5-36.6,2.6-53.7,9.2
		c-11.7,5-22.7,11.3-32.8,19c-12.8,9.1-23,16.2-39.4,17c-1.8,0.1-4.3,0-6.9-0.2c-12.7-0.6-39.3-1.8-40.7,25.8
		c-1.3,25.5-0.5,48.8-0.5,49c0,0.3,0,0.5,0.1,0.8c0.2,1.1,4.8,27.4,50.8,34.8l1.2,0.2c13.4,23.7,43.4,32,67.1,18.6
		c7.2-4.1,13.3-9.9,17.7-17l169,1.6c13.8,23.4,43.9,31.2,67.3,17.4c6.9-4.1,12.7-9.8,16.9-16.6l45.4,0.4h0.4c4.1-0.2,8-2.1,10.6-5.3
		C837.6,442.4,837,421.6,835.4,402.7z M819.3,443.4c-0.3,0.4-0.7,0.7-1.3,0.8l-49-0.5l-9.4-0.1l-22.6-0.2c-4.4,0-8-3.7-7.9-8.1
		l0.1-10.4c0-4.4,3.7-8,8.1-7.9c0,0,0,0,0,0l31,0.3h0c3.6,0,6.6-2.9,6.6-6.5c0-1.3-0.4-2.6-1.1-3.7c-13.3-23.7-43.3-32.1-67-18.9
		c-6.6,3.7-12.3,8.9-16.6,15.2l-171.5-1.7c-14.9-22.7-45.4-29.1-68.1-14.3c-6.5,4.3-12,10-15.8,16.8c0,0-0.1,0.1-0.1,0.1
		c-5.3,10.5-7.2,22.5-5.4,34.1c-28.4-6.3-33.1-20.3-33.6-22.4c-0.1-3.6-0.7-24.5,0.5-47.4c0.5-10.1,4.5-14.4,27-13.3
		c3,0.1,5.7,0.3,8.2,0.1c20.2-1,32.9-9.9,46.3-19.4c17.2-12.1,36.6-25.9,78.9-25.7h1.3c48.9,0.5,73.3,18.9,89.5,31.1
		c8,6,14.3,10.8,21.3,12.1c0.2,0,0.3,0.1,0.5,0.1c0.7,0.1,74.9,7.5,111.5,16.5c39.2,9.7,41.6,30.2,41.6,30.5c0,0.7,0.1,1.8,0.3,3.1
		C824.7,430.9,822,440.3,819.3,443.4L819.3,443.4z"/>
	<g id="Grupo_72" transform="translate(339.153 282.47)">
		<path id="Caminho_1323" class="st0" d="M81.1,237.4L67.3,304c-10.1,4.1-20.8,6-31.7,5.7c-8.7,0.5-17.3-2.2-24.2-7.5
			c-6-5.3-9.2-13.1-8.7-21.1c0-6.2,1.1-12.4,3.2-18.3c1.9-5.8,4.8-11.2,8.7-15.9c8.6-10.2,21.2-15.2,37.9-15.2
			C62.4,231.2,72.2,233.2,81.1,237.4z M52.5,247.6c-1.5-0.6-3.1-0.8-4.7-0.7c-6.1,0.4-11.4,4.4-13.4,10.2
			c-3.7,7.3-5.7,15.5-5.6,23.7c0,8.2,3.2,12.3,9.6,12.3c1.7,0,3.3-0.2,4.9-0.7L52.5,247.6z"/>
		<path id="Caminho_1324" class="st0" d="M165.1,233.1L150.4,304c-10.9,4.2-22.5,6.2-34.2,5.7c-7.8,0.5-15.6-1.1-22.5-4.7
			c-5-3.3-7.9-9.1-7.5-15.1c0-2.7,0.3-5.3,0.8-8l10.3-48.8h26.5l-10.6,50.9c0,0.4-0.1,0.8-0.2,1.2c-0.1,0.5-0.2,1.1-0.2,1.6
			c0,3.4,2.2,5.2,6.7,5.2c2.4,0.1,4.7-0.3,7-1.1l12.1-57.8L165.1,233.1z"/>
		<path id="Caminho_1325" class="st0" d="M222.4,233.1l-3.5,17.3h-10.9l-7.1,34.2c-0.3,1-0.4,1.9-0.4,2.9c0,2.9,1.5,4.3,4.6,4.3
			c1.8,0,3.6-0.3,5.3-1.1l-3.4,16.2c-4.1,1.9-8.7,2.8-13.3,2.7c-5.5,0.4-11-1.3-15.2-4.9c-3.4-3.4-5.2-8.1-5-13c0-2,0.3-4,0.7-6
			l7.3-35.3h-8l3.5-17.3h8.1l3.1-15.3l27.9-6.6l-4.6,21.9L222.4,233.1z"/>
		<path id="Caminho_1326" class="st0" d="M296.4,260.6c-0.1,5.7-1,11.4-2.9,16.9c-1.7,5.5-4.2,10.7-7.5,15.5
			c-7.4,11-20,17.3-33.2,16.7c-8,0.5-15.8-2.4-21.5-8c-5.3-5.7-8-13.2-7.7-20.9c0.1-5.8,1-11.5,2.9-17c1.7-5.5,4.2-10.7,7.5-15.5
			c7.5-10.8,20-17.1,33.2-16.6c14.8-1.3,27.8,9.6,29.1,24.4C296.5,257.6,296.5,259.1,296.4,260.6L296.4,260.6z M270.8,256.8
			c0-5.8-2-8.7-5.9-8.7c-4.1,0-7.5,3.3-10.2,9.8c-1.6,4.1-2.9,8.4-3.8,12.7c-1,4.2-1.6,8.4-1.7,12.7c0,5.7,2,8.5,6,8.5
			c4.1,0,7.5-3.2,10.2-9.6c1.6-4.1,2.9-8.3,3.7-12.6C270.2,265.4,270.7,261.1,270.8,256.8z"/>
		<path id="Caminho_1327" class="st1" d="M398.4,212.3L364,256.9l15.5,51.3h-30l-10.6-46.5h-0.3l-9.6,46.5h-27.5l19.8-96h27.4
			l-8.8,42.5h0.3l29.6-42.5L398.4,212.3z"/>
		<path id="Caminho_1328" class="st1" d="M511.4,251.5c0,1.9-0.2,3.7-0.6,5.6l-10.6,51.2h-26.5l10.9-52.2c0.2-0.7,0.2-1.4,0.3-2.1
			c0-4-2.6-6-7.7-6c-2.6,0-5.1,0.8-7.3,2.2l-12,58h-26.5l10.7-52.2c0.2-0.7,0.3-1.4,0.3-2.1c0-4-2.6-6-7.8-6c-2.3,0-4.6,0.4-6.8,1.1
			l-12.1,59.2h-26.5l14.7-70.9c10.8-4,22.3-6,33.9-5.7c4.4,0,8.8,0.7,13,2c3.3,0.9,6.4,2.5,9,4.8c8.3-5.1,18-7.5,27.8-6.8
			c6.3-0.4,12.6,1.5,17.6,5.4C509.3,240.6,511.6,246,511.4,251.5z"/>
	</g>
</g>
</svg>
